<svg xmlns="http://www.w3.org/2000/svg" xmlns:xlink="http://www.w3.org/1999/xlink" id="Layer_1" width="406" height="306" class="illustration styles_illustrationTablet__1DWOa" data-name="Layer 1" viewBox="0 0 375.64 314.64"><defs><linearGradient id="linear-gradient" x1="64.11" x2="146.34" y1="235.48" y2="235.48" gradientUnits="userSpaceOnUse"><stop offset=".01"/><stop offset=".13" stop-opacity=".69"/><stop offset="1" stop-opacity="0"/></linearGradient><linearGradient id="linear-gradient-2" x1="64.11" x2="138.22" y1="244.48" y2="244.48" xlink:href="#linear-gradient"/><linearGradient id="linear-gradient-3" x1="47.93" x2="138.37" y1="190.99" y2="190.99" gradientUnits="userSpaceOnUse"><stop offset=".01" stop-color="#fff"/><stop offset=".13" stop-color="#fff" stop-opacity=".69"/><stop offset="1" stop-color="#fff" stop-opacity="0"/></linearGradient><linearGradient id="linear-gradient-4" x1="303.43" x2="327.47" y1="200.92" y2="127.2" xlink:href="#linear-gradient"/><linearGradient id="linear-gradient-5" x1="263.72" x2="340.11" y1="250.11" y2="127.78" xlink:href="#linear-gradient"/><linearGradient id="linear-gradient-6" x1="280.21" x2="298.5" y1="168.93" y2="142.76" xlink:href="#linear-gradient"/><linearGradient id="linear-gradient-7" x1="130.49" x2="173.76" y1="131.86" y2="135.6" xlink:href="#linear-gradient"/><linearGradient id="linear-gradient-8" x1="144.62" x2="236.69" y1="137.09" y2="137.09" xlink:href="#linear-gradient"/><linearGradient id="linear-gradient-9" x1="144.99" x2="261.44" y1="126.6" y2="126.6" xlink:href="#linear-gradient"/><linearGradient id="linear-gradient-10" x1="205.51" x2="196.97" y1="110.59" y2="161.07" xlink:href="#linear-gradient-3"/><linearGradient id="linear-gradient-11" x1="206.45" x2="245.98" y1="115.78" y2="115.78" xlink:href="#linear-gradient"/><linearGradient id="linear-gradient-12" x1="206.45" x2="245.98" y1="112.29" y2="112.29" xlink:href="#linear-gradient"/><linearGradient id="linear-gradient-13" x1="174.06" x2="213.33" y1="119.18" y2="119.18" gradientTransform="translate(286.56 -88.41) rotate(82.5)" xlink:href="#linear-gradient"/><linearGradient id="linear-gradient-14" x1="199" x2="209.69" y1="144.97" y2="80.6" xlink:href="#linear-gradient-3"/><linearGradient id="linear-gradient-15" x1="212.49" x2="201.92" y1="49.55" y2="106.34" xlink:href="#linear-gradient"/><linearGradient id="linear-gradient-16" x1="220.05" x2="197.12" y1="-16.31" y2="106.79" xlink:href="#linear-gradient"/><linearGradient id="linear-gradient-17" x1="184.72" x2="189.71" y1="51.82" y2="51.82" xlink:href="#linear-gradient-3"/><linearGradient id="linear-gradient-18" x1="171.87" x2="181.96" y1="57.78" y2="57.78" xlink:href="#linear-gradient-3"/><linearGradient id="linear-gradient-19" x1="184.6" x2="194.5" y1="61.49" y2="61.49" xlink:href="#linear-gradient-3"/><linearGradient id="linear-gradient-20" x1="199.21" x2="206.32" y1="55.43" y2="55.43" xlink:href="#linear-gradient-3"/><linearGradient id="linear-gradient-21" x1="211.1" x2="213.83" y1="57.03" y2="57.03" xlink:href="#linear-gradient-3"/><linearGradient id="linear-gradient-22" x1="219.82" x2="224.64" y1="62.68" y2="62.68" xlink:href="#linear-gradient-3"/><linearGradient id="linear-gradient-23" x1="197.26" x2="201.1" y1="49.45" y2="49.45" xlink:href="#linear-gradient-3"/><linearGradient id="linear-gradient-24" x1="224.46" x2="230.9" y1="55.03" y2="55.03" xlink:href="#linear-gradient-3"/><linearGradient id="linear-gradient-25" x1="220.91" x2="229.47" y1="70.88" y2="70.88" xlink:href="#linear-gradient-3"/><linearGradient id="linear-gradient-26" x1="203.02" x2="211.52" y1="66.23" y2="66.23" xlink:href="#linear-gradient-3"/><linearGradient id="linear-gradient-27" x1="233.11" x2="239.2" y1="64.35" y2="64.35" xlink:href="#linear-gradient-3"/><linearGradient id="linear-gradient-28" x1="243.87" x2="245.89" y1="63.98" y2="63.98" xlink:href="#linear-gradient-3"/><linearGradient id="linear-gradient-29" x1="146.35" x2="182.7" y1="126.23" y2="126.23" xlink:href="#linear-gradient-3"/><linearGradient id="linear-gradient-30" x1="353.31" x2="323.93" y1="241.29" y2="182" xlink:href="#linear-gradient"/><linearGradient id="linear-gradient-31" x1="325.18" x2="350.17" y1="160.56" y2="160.56" xlink:href="#linear-gradient"/><linearGradient id="linear-gradient-32" x1="300.24" x2="331.8" y1="164.13" y2="164.13" xlink:href="#linear-gradient"/><linearGradient id="linear-gradient-33" x1="255.51" x2="301.45" y1="158.02" y2="126.32" xlink:href="#linear-gradient"/><linearGradient id="linear-gradient-34" x1="295.7" x2="322.51" y1="152.39" y2="152.39" xlink:href="#linear-gradient"/><linearGradient id="linear-gradient-35" x1="80.07" x2="119.95" y1="174.82" y2="203.67" xlink:href="#linear-gradient-3"/><linearGradient id="linear-gradient-36" x1="64" x2="102.51" y1="142.54" y2="142.54" xlink:href="#linear-gradient"/></defs><title>3</title><path fill="#007bff" d="M378.47,197.59c-6.17,14.11-16.81,25.88-27.24,37.31l-34.57,37.89c-8.73,9.57-17.59,19.25-28.44,26.34-17.87,11.69-39.81,15.45-61.15,16.12s-42.7-1.5-64-.44c-10.61.52-17.85,5.78-28.27,6a120,120,0,0,1-41-6.56c-.82-.28-1.63-.59-2.45-.91-13-5.07-24.61-13.38-34.86-22.89L56,290a150.77,150.77,0,0,1-36.1-50.8,132.58,132.58,0,0,1-5.81-87c6.48-23.59,13.51-46.87,19.78-70.45A101.08,101.08,0,0,1,160.42,10.19c18.58,5.48,35.19,16.16,53.36,22.86,23.48,8.65,48.89,10.42,73.91,11,17.57.42,36.29.63,51,10.32,7.48,5,13.28,12,19,18.95,8.12,9.93,16.38,20.11,20.77,32.16,3.45,9.48,4.34,19.68,5.19,29.74,1.7,20,3.29,40.78-3.92,59.5C379.27,195.71,378.88,196.65,378.47,197.59Z" opacity=".18" transform="translate(-9.35 -6.17)" style="isolation:isolate"/><path fill="#007bff" d="M68.34,121.07c-2.31-5.37-10.55-5.54-15-1.69s-6,9.93-7.26,15.63c-2.63,11.39-5.09,24.06.72,34.21.86,1.51,1.93,3,1.89,4.78-.09,3.89-5,5.29-8.18,7.56-5.68,4.08-6.07,12.22-5.92,19.21.21,9.71.71,20.25,6.94,27.71,2.85,3.41,6.65,5.85,10,8.82,11.78,10.62,16.23,27.16,26.26,39.44,2.09,2.56,4.54,5,7.67,6a21,21,0,0,0,6.72.67l21-.18c2.1,0,4.33-.07,6.08-1.24,3.91-2.61,2.89-8.54,1.38-13q-8.3-24.63-17.75-48.83c-5.12-13.09-9-28.15-21-36.55-9.47-6.58-19.81-10-25.18-21.36-3.39-7.19-2.8-14.52-.06-21.84C57.64,137.68,68.88,122.34,68.34,121.07Z" opacity=".18" transform="translate(-9.35 -6.17)" style="isolation:isolate"/><path fill="#007bff" d="M64.11,216.69,109,286.62s27.42-1.6,37.35-14.42l-14.29-87.86Z" transform="translate(-9.35 -6.17)"/><path fill="url(#linear-gradient)" d="M146.34,272.2a27.25,27.25,0,0,1-9,7.13c-12,6.33-28.34,7.29-28.34,7.29L64.11,216.7l30.16-14.37,37.79-18Z" transform="translate(-9.35 -6.17)"/><path fill="url(#linear-gradient-2)" d="M138.22,276.47a20.12,20.12,0,0,1-.88,2.86c-12,6.33-28.34,7.29-28.34,7.29L64.11,216.7l30.16-14.37c9.64,3.27.66,10.53-.12,17.12a12.13,12.13,0,0,0,.89,5.12,365.33,365.33,0,0,0,15.07,38.06c1.47,3.2,3.07,6.47,5.78,8.7C121.87,276.25,130.73,274.48,138.22,276.47Z" transform="translate(-9.35 -6.17)"/><path fill="#007bff" d="M50.6,203.84a13.79,13.79,0,0,1-1.38,2c-2.14,3.2-1.19,7.46-.16,11.17a113.61,113.61,0,0,0,49.37-8.88,96.85,96.85,0,0,0,39.38-30.82,1.57,1.57,0,0,0-.08-2.46l-4-4.55a1.52,1.52,0,0,0-.84-.6,2.24,2.24,0,0,0-1,.22c-1.69.56-3.46-.62-4.71-1.9s-2.49-2.8-4.24-3.14a7.4,7.4,0,0,0-3.56.48c-18.77,5.82-37.51,12.15-54.78,21.53a64.55,64.55,0,0,1-6.7,3.37,21.54,21.54,0,0,1-3.68,1.16c-.82.17-2.88,0-3.5.48-1.19,1,.2,2.92.43,4.16A15.86,15.86,0,0,1,50.6,203.84Z" transform="translate(-9.35 -6.17)"/><path fill="url(#linear-gradient-3)" d="M50.6,203.84a13.79,13.79,0,0,1-1.38,2c-2.14,3.2-1.19,7.46-.16,11.17a113.61,113.61,0,0,0,49.37-8.88,96.85,96.85,0,0,0,39.38-30.82,1.57,1.57,0,0,0-.08-2.46l-4-4.55a1.52,1.52,0,0,0-.84-.6,2.24,2.24,0,0,0-1,.22c-1.69.56-3.46-.62-4.71-1.9s-2.49-2.8-4.24-3.14a7.4,7.4,0,0,0-3.56.48c-18.77,5.82-37.51,12.15-54.78,21.53a64.55,64.55,0,0,1-6.7,3.37,21.54,21.54,0,0,1-3.68,1.16c-.82.17-2.88,0-3.5.48-1.19,1,.2,2.92.43,4.16A15.86,15.86,0,0,1,50.6,203.84Z" transform="translate(-9.35 -6.17)"/><path fill="#007bff" d="M358.38,174.42a145.84,145.84,0,0,0,17-30.77c.63-1.57,1.24-3.3.72-4.91-.64-2-2.74-3-4.66-3.87a344.7,344.7,0,0,0-55.86-18.78c-5.19-1.26-10.55-2.46-14.94-5.51-2.83-2-5.14-4.63-8-6.57-7.35-5-17-4.59-25.88-4-2.39.17-4.9.38-6.93,1.66-5.83,3.71-3.74,12.46-4.5,19.32-1.55,13.86-17.08,23.34-17.74,37.26-.38,7.95,4.48,15.44,10.86,20.2s14.15,7.22,21.81,9.39a417.17,417.17,0,0,0,60.23,12.33c4.58.59,9.84.89,13.15-2.34" opacity=".18" transform="translate(-9.35 -6.17)" style="isolation:isolate"/><path fill="#007bff" d="M287.39,139.84c1.33-.92,2.53-2,3.85-2.93,4-2.77,9-3.75,13.81-4.22,13.94-1.35,28.38,1.17,40.58,8.07a38.93,38.93,0,0,1,13.18,11.43c3.31,4.85,5.07,10.92,4,16.69a25.07,25.07,0,0,1-2,5.88,12.32,12.32,0,0,1-3.06,4.42,14.32,14.32,0,0,1-2.67,1.65l-22,11.56c-3.91,2.05-8,4.14-12.36,4.43s-8.9-1.34-13.33-2.27-8.85-1.19-12.6-3.47c-3.17-1.92-5.39-5-7.75-7.9-5.54-6.7-12.61-12.86-14.48-21.36-.69-3.1-.68-6.33-1-9.48-.2-1.85-.57-3.6.75-5.1,1.66-1.9,5-2.72,7.3-3.61A37,37,0,0,0,287.39,139.84Z" transform="translate(-9.35 -6.17)"/><path fill="url(#linear-gradient-4)" d="M287.39,139.84c1.33-.92,2.53-2,3.85-2.93,4-2.77,9-3.75,13.81-4.22,13.94-1.35,28.38,1.17,40.58,8.07a38.93,38.93,0,0,1,13.18,11.43c3.31,4.85,5.07,10.92,4,16.69a25.07,25.07,0,0,1-2,5.88,12.32,12.32,0,0,1-3.06,4.42,14.32,14.32,0,0,1-2.67,1.65l-22,11.56c-3.91,2.05-8,4.14-12.36,4.43s-8.9-1.34-13.33-2.27-8.85-1.19-12.6-3.47c-3.17-1.92-5.39-5-7.75-7.9-5.54-6.7-12.61-12.86-14.48-21.36-.69-3.1-.68-6.33-1-9.48-.2-1.85-.57-3.6.75-5.1,1.66-1.9,5-2.72,7.3-3.61A37,37,0,0,0,287.39,139.84Z" transform="translate(-9.35 -6.17)"/><path fill="#007bff" d="M295.51,124.36c-.69,3.48-1,7.07-1.39,10.58-.9,4.25-1.25,8-2.77,12.11-.61,1.66-1.21,2.38-.24,4,1.14,1.93,4.11,1.77,3.28,4.63-1.37,4.72-2.28,9.91-.41,14.46a16.73,16.73,0,0,0,7.94,8.11c3.53,1.85,7.74,2.78,11.52,1.54,2.87-.93,5.22-3,7.38-5.1a3.43,3.43,0,0,1,1.62-1,3.27,3.27,0,0,1,1.73.32l11.12,4.17a7.16,7.16,0,0,0,6.25.22l25.65-8.51a109.32,109.32,0,0,1-1-12.91l-24.4,11.2,22.9-18.23-5.29-8-26,14.65,24.33-27.73a4.51,4.51,0,0,0,1.43-2.73c0-2.93-4.7-3.08-6.31-5.53Q336.59,135,321,150.15l13.81-19.28a3.27,3.27,0,0,0,.88-2.43c-.43-2.06-3.88-1.59-5-3.33L313.83,145c5.77-10.57,11.55-21.15,16.34-32.19a2.72,2.72,0,0,0,.2-2.45c-.7-1.08-2.51-.67-3.45-1.55a138,138,0,0,0-17,34.72,83.64,83.64,0,0,1,5.34-15,10.16,10.16,0,0,0,1.25-4,3.18,3.18,0,0,0-2.18-3.22c-1.82-.38-3.28,1.44-4.25,3l-11.16,18.3q5.64-15,12.58-29.47l-10.71,1.67a4.37,4.37,0,0,0-1.74.54,3.92,3.92,0,0,0-1.22,1.66A31.25,31.25,0,0,0,295.51,124.36Z" transform="translate(-9.35 -6.17)"/><path fill="url(#linear-gradient-5)" d="M292.67,125.48c-.7,3.48-1,7.06-1.39,10.58-.9,4.25-1.25,8-2.77,12.11-.61,1.66-1.21,2.38-.24,4,1.14,1.92,4.1,1.77,3.27,4.63-1.37,4.72-2.27,9.91-.4,14.46a16.77,16.77,0,0,0,7.94,8.11c3.53,1.84,7.74,2.77,11.52,1.54,2.87-.93,5.21-3,7.38-5.1a3.43,3.43,0,0,1,1.62-1,3.29,3.29,0,0,1,1.73.31l11.12,4.18a7.14,7.14,0,0,0,6.24.22L364.34,171a113.75,113.75,0,0,1-1-12.91L339,169.26,361.86,151l-5.29-8-26,14.64,24.33-27.72a4.48,4.48,0,0,0,1.44-2.73c0-2.93-4.7-3.08-6.32-5.53q-16.25,14.46-31.84,29.63L332,132a3.32,3.32,0,0,0,.88-2.43c-.43-2.06-3.88-1.59-5.05-3.34L311,146.07c5.78-10.57,11.56-21.15,16.34-32.2a2.64,2.64,0,0,0,.2-2.44c-.7-1.09-2.5-.68-3.45-1.56a138.56,138.56,0,0,0-17,34.73,84.49,84.49,0,0,1,5.33-15,9.92,9.92,0,0,0,1.26-4,3.16,3.16,0,0,0-2.19-3.22c-1.82-.38-3.27,1.44-4.24,3l-11.16,18.3q5.64-15,12.57-29.46L298,116a4.32,4.32,0,0,0-1.74.54,3.83,3.83,0,0,0-1.22,1.66A31.25,31.25,0,0,0,292.67,125.48Z" transform="translate(-9.35 -6.17)"/><path fill="#007bff" d="M305.65,119.17c.35-.64.8-1.34,1.52-1.48a2.56,2.56,0,0,1,1.44.32l2.61,1.15c.37.17.78.37.91.75a1.39,1.39,0,0,1-.15,1,55.82,55.82,0,0,1-5,8.66,144.89,144.89,0,0,0-7.76,14c-2.37,4.85-4.18,10.23-6.89,14.86-2.29-1.73-4.88-4.47-4.17-7.56.76-3.29,3.39-6.59,5-9.5Z" transform="translate(-9.35 -6.17)"/><path fill="url(#linear-gradient-6)" d="M307.4,120c.36-.64.81-1.34,1.53-1.47a2.5,2.5,0,0,1,1.43.31L313,120a1.46,1.46,0,0,1,.9.74,1.42,1.42,0,0,1-.14,1,58.47,58.47,0,0,1-5,8.66,140.51,140.51,0,0,0-7.76,14c-2.38,4.84-4.19,10.22-6.89,14.85-2.29-1.73-4.89-4.47-4.17-7.56.76-3.29,3.39-6.59,5-9.5Z" transform="translate(-9.35 -6.17)"/><path fill="#007bff" d="M139.9,68.62c-8.24,2.77-15.84,9-17.77,17.52A13.07,13.07,0,0,0,112.69,90a4.07,4.07,0,0,0-1.41,2.78c0,.89.52,1.75.35,2.62a3.47,3.47,0,0,1-1.73,2L105,100.71c-2.08,1.41-4.39,3.25-4.34,5.77.07,3.46,4.28,5,6.88,7.26,4.64,4.06,4.32,11.25,6.63,17,2.67,6.58,8.92,11.12,15.54,13.68s13.75,3.49,20.68,5c9.49,2.09,18.8,5.36,28.5,5.94s20.28-2.09,26.28-9.74c5.12-6.52,6-15.36,6.11-23.65.2-14.48-1.85-30.18-11.9-40.6a45.45,45.45,0,0,0-12.47-8.76C173.5,65.83,154.24,63.81,139.9,68.62Z" opacity=".18" transform="translate(-9.35 -6.17)" style="isolation:isolate"/><path fill="#007bff" d="M162.21,124.48h68.28A18.52,18.52,0,0,1,249,143v1.3a6.77,6.77,0,0,1-6.77,6.77H150.47a6.77,6.77,0,0,1-6.77-6.77V143a18.52,18.52,0,0,1,18.52-18.52Z" transform="translate(364.48 292.96) rotate(-172.78)"/><path fill="url(#linear-gradient-7)" d="M249.41,137.93l-.16,1.29a18.53,18.53,0,0,1-20.7,16l-67.74-8.59a18.51,18.51,0,0,1-16-20.69l.16-1.29a6.76,6.76,0,0,1,7.58-5.86l19.2,2.43,71.83,9.09A6.79,6.79,0,0,1,249.41,137.93Z" transform="translate(-9.35 -6.17)"/><path fill="url(#linear-gradient-8)" d="M236.69,151.26a5.17,5.17,0,0,1-1.87,3.72,18.47,18.47,0,0,1-6.27.28l-67.74-8.59a18.51,18.51,0,0,1-16-20.69l.16-1.29a6.76,6.76,0,0,1,7.58-5.86l19.2,2.43c3.82,2,7.8,6,2.79,8.89-2.55,1.45-5.88.19-6.47,3.94-.43,2.81,1.82,5.54,4.12,6.81,2.53,1.4,5.51,1.69,8.4,1.92,11,.9,22.1,1.36,32.92,3.56,6.89,1.39,13.79,3.5,20.79,2.91a2.71,2.71,0,0,1,1.83.27A2.06,2.06,0,0,1,236.69,151.26Z" transform="translate(-9.35 -6.17)"/><path fill="#007bff" d="M149.75,112.32a1.74,1.74,0,0,0-2.35-.15,5.06,5.06,0,0,0-1.43,2.15c-.7,1.6-1.4,3.44-.68,5a6.32,6.32,0,0,0,2.85,2.52l5.43,3.08a3.36,3.36,0,0,0,1.68.58c.66,0,1.25-.46,1.91-.54s1.48.52,1.17,1.11c.55-.58,1.56-.29,2.15.26a11.89,11.89,0,0,0,1.69,1.71c1.75,1.07,4.41-.44,5.9,1,.39.37.64.91,1.13,1.11s1.32-.14,2-.35c2.41-.79,4.8,1,6.82,2.54s4.94,2.85,6.92,1.27l-1.05-.61a4.82,4.82,0,0,1,4.09,2.49,11.5,11.5,0,0,1,4.77-2.23,1.65,1.65,0,0,1,1.22.07c.48.28.62,1,1.08,1.28s1.27.16,1.91.27a4.84,4.84,0,0,1,2.17,1.53,8.29,8.29,0,0,0,9.66,1,4,4,0,0,1,1.62-.74c1.36-.11,2.19,1.4,3.22,2.3a6,6,0,0,0,4.62,1.12c1.62-.18,3.18-.73,4.78-1,3.33-.63,6.75-.22,10.11.19l2.46.31a8.27,8.27,0,0,1,3.61-2,2,2,0,0,1,1.42.17,2,2,0,0,1,.66.85,16.38,16.38,0,0,1,1.4,3.76A10.39,10.39,0,0,1,247,141a15.22,15.22,0,0,1,2,.22,31.87,31.87,0,0,0,6.55,0,7.52,7.52,0,0,0,3.94-1,5.07,5.07,0,0,0,1.88-3.83,14.8,14.8,0,0,0-.58-4.37c-.34-1.47-.82-3.13-2.17-3.82a4.9,4.9,0,0,0-1.86-.42,43,43,0,0,0-6.9,0,1.61,1.61,0,0,0-1-1.88,4.62,4.62,0,0,0-2.28-.24l-3.69.23a2.42,2.42,0,0,1-1-.08,3.26,3.26,0,0,1-1-.8,5.18,5.18,0,0,0-6.49-.23,19.17,19.17,0,0,0-11.16-2.79c-3.71.18-7.38.92-11.09,1-6.41.07-12.63-2-19-3-7.82-1.24-16.08-1-23.25-4.33-2.94-1.37-5.86-3.38-9.1-3.09l1.44,1.15a9.41,9.41,0,0,0-5.2.46,2,2,0,0,0-1-1.79c-1.73-1.37-4.33-1.94-6.15-.69C149.7,111.78,149.38,112.43,149.75,112.32Z" transform="translate(-9.35 -6.17)"/><path fill="url(#linear-gradient-9)" d="M149.75,112.32a1.74,1.74,0,0,0-2.35-.15,5.06,5.06,0,0,0-1.43,2.15c-.7,1.6-1.4,3.44-.68,5a6.32,6.32,0,0,0,2.85,2.52l5.43,3.08a3.36,3.36,0,0,0,1.68.58c.66,0,1.25-.46,1.91-.54s1.48.52,1.17,1.11c.55-.58,1.56-.29,2.15.26a11.89,11.89,0,0,0,1.69,1.71c1.75,1.07,4.41-.44,5.9,1,.39.37.64.91,1.13,1.11s1.32-.14,2-.35c2.41-.79,4.8,1,6.82,2.54s4.94,2.85,6.92,1.27l-1.05-.61a4.82,4.82,0,0,1,4.09,2.49,11.5,11.5,0,0,1,4.77-2.23,1.65,1.65,0,0,1,1.22.07c.48.28.62,1,1.08,1.28s1.27.16,1.91.27a4.84,4.84,0,0,1,2.17,1.53,8.29,8.29,0,0,0,9.66,1,4,4,0,0,1,1.62-.74c1.36-.11,2.19,1.4,3.22,2.3a6,6,0,0,0,4.62,1.12c1.62-.18,3.18-.73,4.78-1,3.33-.63,6.75-.22,10.11.19l2.46.31a8.27,8.27,0,0,1,3.61-2,2,2,0,0,1,1.42.17,2,2,0,0,1,.66.85,16.38,16.38,0,0,1,1.4,3.76A10.39,10.39,0,0,1,247,141a15.22,15.22,0,0,1,2,.22,31.87,31.87,0,0,0,6.55,0,7.52,7.52,0,0,0,3.94-1,5.07,5.07,0,0,0,1.88-3.83,14.8,14.8,0,0,0-.58-4.37c-.34-1.47-.82-3.13-2.17-3.82a4.9,4.9,0,0,0-1.86-.42,43,43,0,0,0-6.9,0,1.61,1.61,0,0,0-1-1.88,4.62,4.62,0,0,0-2.28-.24l-3.69.23a2.42,2.42,0,0,1-1-.08,3.26,3.26,0,0,1-1-.8,5.18,5.18,0,0,0-6.49-.23,19.17,19.17,0,0,0-11.16-2.79c-3.71.18-7.38.92-11.09,1-6.41.07-12.63-2-19-3-7.82-1.24-16.08-1-23.25-4.33-2.94-1.37-5.86-3.38-9.1-3.09l1.44,1.15a9.41,9.41,0,0,0-5.2.46,2,2,0,0,0-1-1.79c-1.73-1.37-4.33-1.94-6.15-.69C149.7,111.78,149.38,112.43,149.75,112.32Z" transform="translate(-9.35 -6.17)"/><path fill="#007bff" d="M260,120.55l7.12,10.63a7.77,7.77,0,0,1,1.43,3,2.64,2.64,0,0,1-1.29,2.84,4,4,0,0,1-2.26,0l-17.18-3.24c-3.67-.69-7.35-1.38-11.06-1.85-8.08-1-16.28-.92-24.3-2.4-1.88-.34-4.13-1.41-6-1.45-1.3,0-2.82.71-4.15.94a37.1,37.1,0,0,1-11.28.11c-10.83-1.42-19.07-6.59-18.42-11.54s10-7.8,20.78-6.37,19.07,6.59,18.42,11.53c-.31,2.31-2.49,4.16-5.82,5.33-8.38-.32-17.57-1.14-25.91-2-6.14-.65-11.37-4.43-17.35-6a78.85,78.85,0,0,0-25.44-1.9c-.37-2.06,1.66-3.67,3.45-4.74,4.3-2.56,8.77-5,13.66-6a51.18,51.18,0,0,1,11.41-.73c22.31.23,44.72.47,66.74,4C242.41,112.35,254.37,112.22,260,120.55Z" transform="translate(-9.35 -6.17)"/><path fill="#007bff" d="M260,120.55l7.12,10.63a7.77,7.77,0,0,1,1.43,3,2.64,2.64,0,0,1-1.29,2.84,4,4,0,0,1-2.26,0l-17.18-3.24c-3.67-.69-7.35-1.38-11.06-1.85-8.08-1-16.28-.92-24.3-2.4-1.88-.34-4.13-1.41-6-1.45-1.3,0-2.82.71-4.15.94a37.1,37.1,0,0,1-11.28.11c-10.83-1.42-19.07-6.59-18.42-11.54s10-7.8,20.78-6.37,19.07,6.59,18.42,11.53c-.31,2.31-2.49,4.16-5.82,5.33-8.38-.32-17.57-1.14-25.91-2-6.14-.65-11.37-4.43-17.35-6a78.85,78.85,0,0,0-25.44-1.9c-.37-2.06,1.66-3.67,3.45-4.74,4.3-2.56,8.77-5,13.66-6a51.18,51.18,0,0,1,11.41-.73c22.31.23,44.72.47,66.74,4C242.41,112.35,254.37,112.22,260,120.55Z" transform="translate(-9.35 -6.17)"/><path fill="url(#linear-gradient-10)" d="M260,120.55l7.12,10.63a7.77,7.77,0,0,1,1.43,3,2.64,2.64,0,0,1-1.29,2.84,4,4,0,0,1-2.26,0l-17.18-3.24c-3.67-.69-7.35-1.38-11.06-1.85-8.08-1-16.28-.92-24.3-2.4-1.88-.34-4.13-1.41-6-1.45-1.3,0-2.82.71-4.15.94a37.1,37.1,0,0,1-11.28.11c-10.83-1.42-19.07-6.59-18.42-11.54s10-7.8,20.78-6.37,19.07,6.59,18.42,11.53c-.31,2.31-2.49,4.16-5.82,5.33-8.38-.32-17.57-1.14-25.91-2-6.14-.65-11.37-4.43-17.35-6a78.85,78.85,0,0,0-25.44-1.9c-.37-2.06,1.66-3.67,3.45-4.74,4.3-2.56,8.77-5,13.66-6a51.18,51.18,0,0,1,11.41-.73c22.31.23,44.72.47,66.74,4C242.41,112.35,254.37,112.22,260,120.55Z" transform="translate(-9.35 -6.17)"/><path fill="#007bff" d="M144.42,114.86c4.59-.51,9.46-1,13.63,1,2.47,1.19,4.56,3.19,7.22,3.89a24,24,0,0,0,4.88.4c3.57.18,7,1.17,10.54,1.89a70.24,70.24,0,0,0,14.46,1.45c3,0,6.1-.21,9.06.45,3.3.75,6.3,2.55,9.62,3.21,6.13,1.21,12.45-1.58,18.64-.77,3,.4,5.92,1.63,8.92,1.28a10.57,10.57,0,0,1,2.5-.22,7.83,7.83,0,0,1,2.18.75,19.35,19.35,0,0,0,9.26,1.53,3.73,3.73,0,0,0,1.47-.35,3.57,3.57,0,0,0,1.31-1.46,11.67,11.67,0,0,0,.94-9.07c-12.66,1.32-25.3-1.66-37.89-3.57-19.68-3-39.8-3.36-59.13-8.14-2.93-.73-8.29-2.55-11-.42-1,.76-1.67,2.23-2.47,3.18S145.37,114.75,144.42,114.86Z" transform="translate(-9.35 -6.17)"/><ellipse cx="226.22" cy="115.78" fill="url(#linear-gradient-11)" rx="19.77" ry="9.04"/><ellipse cx="226.22" cy="112.29" fill="url(#linear-gradient-12)" rx="19.77" ry="9.04"/><ellipse cx="193.69" cy="119.18" fill="url(#linear-gradient-13)" rx="9.04" ry="19.77" transform="translate(40.89 289.48) rotate(-82.5)"/><path fill="#007bff" d="M153,87.66c-1,5.13-6.46,7.88-11.23,10-1.4.62-3,1.46-3.29,3a4,4,0,0,0,.41,2.45,10.74,10.74,0,0,0,10,6.22c3.31-.15,7-1.76,9.7.18,1.89,1.37,2.38,4,3.89,5.76a6.36,6.36,0,0,0,6.16,2c2.84-.66,5.12-3.27,8-3.21,3.85.07,5.91,4.48,9.07,6.68a8.87,8.87,0,0,0,7.84,1c3.83-1.37,6.88-5.43,10.92-4.91a8.88,8.88,0,0,1,3.15,1.19,30.35,30.35,0,0,1,5.33,3.8,2,2,0,0,0,1.32.66,1.81,1.81,0,0,0,1.09-.78c1.29-1.59,2.46-3.35,4.17-4.46s4.21-1.39,5.69,0a8.72,8.72,0,0,1,1.7,3.11,3.92,3.92,0,0,0,2.34,2.5c1.16.3,2.58-.87,2.09-2,.51-2.51,5.4-2.9,7.69-1.75s4,3.27,6.37,4.23a7.66,7.66,0,0,0,9.5-3.83,2.85,2.85,0,0,1,1.06-1.54,2.36,2.36,0,0,1,2.2.47c2.24,1.4,4.47,3.06,7.09,3.42s5.75-1.16,6-3.8c.16-1.73-.94-3.31-2-4.7l-6.87-9.17a7.56,7.56,0,0,0-2.85-2.66,7,7,0,0,0-2.46-.4c-7.8-.32-15.61.36-23.42.12-18.59-.55-36.59-6.19-54.75-10.22C170.91,89.34,161.25,87,153,87.66Z" transform="translate(-9.35 -6.17)"/><path fill="url(#linear-gradient-14)" d="M153,87.66c-1,5.13-6.46,7.88-11.23,10-1.4.62-3,1.46-3.29,3a4,4,0,0,0,.41,2.45,10.74,10.74,0,0,0,10,6.22c3.31-.15,7-1.76,9.7.18,1.89,1.37,2.38,4,3.89,5.76a6.36,6.36,0,0,0,6.16,2c2.84-.66,5.12-3.27,8-3.21,3.85.07,5.91,4.48,9.07,6.68a8.87,8.87,0,0,0,7.84,1c3.83-1.37,6.88-5.43,10.92-4.91a8.88,8.88,0,0,1,3.15,1.19,30.35,30.35,0,0,1,5.33,3.8,2,2,0,0,0,1.32.66,1.81,1.81,0,0,0,1.09-.78c1.29-1.59,2.46-3.35,4.17-4.46s4.21-1.39,5.69,0a8.72,8.72,0,0,1,1.7,3.11,3.92,3.92,0,0,0,2.34,2.5c1.16.3,2.58-.87,2.09-2,.51-2.51,5.4-2.9,7.69-1.75s4,3.27,6.37,4.23a7.66,7.66,0,0,0,9.5-3.83,2.85,2.85,0,0,1,1.06-1.54,2.36,2.36,0,0,1,2.2.47c2.24,1.4,4.47,3.06,7.09,3.42s5.75-1.16,6-3.8c.16-1.73-.94-3.31-2-4.7l-6.87-9.17a7.56,7.56,0,0,0-2.85-2.66,7,7,0,0,0-2.46-.4c-7.8-.32-15.61.36-23.42.12-18.59-.55-36.59-6.19-54.75-10.22C170.91,89.34,161.25,87,153,87.66Z" transform="translate(-9.35 -6.17)"/><path fill="#007bff" d="M152.17,92.83c-2.6,4.35-9.94,4.15-12,8.77A23.27,23.27,0,0,0,155,97.37a13.27,13.27,0,0,1-2.66,5l6.9-4.31a12.4,12.4,0,0,1-3,7.75c1.76-.45,2.74-2.26,3.73-3.78s2.61-3.09,4.36-2.61c.83,1.53.16,3.4-.21,5.1a14.56,14.56,0,0,0,2.55,11.69c1.1-2.48.29-5.32,0-8s.53-6,3.12-6.8a13,13,0,0,0,.8,6.34l.53-5.58,1.44,1.09a5.09,5.09,0,0,1,5.53-1.33l.27,10.79a15.9,15.9,0,0,0,2.1-10.59,3.81,3.81,0,0,1,3.5,2.35,11.21,11.21,0,0,1,.81,4.38,4.73,4.73,0,0,0,2.14-4.82c2.37,1.45,2.84,4.62,3.31,7.36s1.64,5.92,4.36,6.5a32.2,32.2,0,0,1-2.5-12.09,2.93,2.93,0,0,1,2.33,3l3.79-3.4a10,10,0,0,0,2.59,8.13,25.27,25.27,0,0,0,7,5.24c1.56.88,3.28,1.76,5.05,1.5,3.4-.49,4.88-4.65,7.8-6.46-4.06-.52-7.71,3.63-11.75,2.91a8.21,8.21,0,0,1-3.58-1.83,21.15,21.15,0,0,1-5.24-6.06c-.39-.66-.72-1.53-.24-2.13a1.75,1.75,0,0,1,1-.54c3.19-.72,6.42.77,9.65,1.31a33.63,33.63,0,0,0,5.68.28,36.87,36.87,0,0,0,9.56-.93,23.26,23.26,0,0,1,1.92,11,28.2,28.2,0,0,0,2.33-9.65,51,51,0,0,0,7.77,2.13c-1,2.56,1.09,5.22,3.2,7a32.16,32.16,0,0,0,5.89,3.83,8,8,0,0,0,4.59,1.13c2.85-.38,4.6-3.22,5.95-5.75a11.36,11.36,0,0,1-8.32,2.73,7.44,7.44,0,0,1-6.42-5.45,1.68,1.68,0,0,1,.1-1.25,2,2,0,0,1,1.71-.62l9.73-.18a3.4,3.4,0,0,1,1.52.2,3.45,3.45,0,0,1,1,.8l3.37,3.48-1.58-5.51a39.53,39.53,0,0,1,8.59,4.68c1.4-1.76.87-4.48-.59-6.19s-3.6-2.66-5.66-3.56c-5.28,2.39-11.22,2.85-17,2.89-19.3.11-38.34-4.08-57.13-8.5-5.95-1.4-11.95-2.84-17.51-5.38a41,41,0,0,0-7-2.87,8.79,8.79,0,0,0-7.23,1" transform="translate(-9.35 -6.17)"/><path fill="#007bff" d="M264.9,95.88,264.43,99A14.45,14.45,0,0,1,248,111.22l-3.67-.54L161.42,98.41A14.47,14.47,0,0,1,149.23,82l.48-3.15a39.47,39.47,0,0,1,44.87-33.3l37,5.48A39.52,39.52,0,0,1,264.9,95.88Z" transform="translate(-9.35 -6.17)"/><path fill="url(#linear-gradient-15)" d="M258.22,109.6a14.38,14.38,0,0,1-9.83,2.08L161.78,98.86A14.45,14.45,0,0,1,149.6,82.44l.47-3.15a39.52,39.52,0,0,1,41.41-33.66,39.48,39.48,0,0,0-27.89,32.12l-.48,3.15A14.46,14.46,0,0,0,175.3,97.32Z" transform="translate(-9.35 -6.17)"/><path fill="url(#linear-gradient-16)" d="M251.39,97.43l-.47,3.15a14.45,14.45,0,0,1-6.58,10.1L161.42,98.41A14.47,14.47,0,0,1,149.23,82l.48-3.15A39.51,39.51,0,0,1,177.6,46.71c1.14.07,2.3.18,3.46.36l37,5.48A39.52,39.52,0,0,1,251.39,97.43Z" transform="translate(-9.35 -6.17)"/><path fill="#007bff" d="M187.89,54.25a2.51,2.51,0,0,0,.57.6.77.77,0,0,0,1.25-.76,2.59,2.59,0,0,0-.37-1l-1.83-3.39a2.42,2.42,0,0,0-.68-.87c-1.05-.7-2.68.32-1.92,1.5C185.79,51.7,186.91,53,187.89,54.25Z" transform="translate(-9.35 -6.17)"/><path fill="#007bff" d="M171.87,59q4.41-2.22,9-4.09a.44.44,0,0,1,.4,0,.43.43,0,0,1,.17.29L182,56.9a50.73,50.73,0,0,1-5.45,3.47,1.85,1.85,0,0,1-1.65.29c-.64-.33-.67-1.2-1-1.84" transform="translate(-9.35 -6.17)"/><path fill="#007bff" d="M188,60.85q3.19-.36,6.41-.46a1,1,0,0,1-.35,1.25,2.85,2.85,0,0,1-1.38.37l-6.25.57c-.6.05-2.52-.23-1.52-1.08C185.54,60.93,187.15,60.94,188,60.85Z" transform="translate(-9.35 -6.17)"/><path fill="#007bff" d="M205.21,55.5a2.54,2.54,0,0,0,.74-.36.84.84,0,0,0,.36-.72.87.87,0,0,0-.7-.71,2.72,2.72,0,0,0-1.06,0l-3.78.71a2.38,2.38,0,0,0-1,.38c-1,.79-.51,2.65.84,2.29C202.14,56.71,203.68,56,205.21,55.5Z" transform="translate(-9.35 -6.17)"/><path fill="#007bff" d="M211.36,58.08A50.76,50.76,0,0,1,212.45,53a1.34,1.34,0,0,1,1.25.7,1.81,1.81,0,0,1,.06,1.19l-.93,5c-.09.48-.86,1.85-1.53.79C210.86,60,211.26,58.74,211.36,58.08Z" transform="translate(-9.35 -6.17)"/><path fill="#007bff" d="M223,64.78a2.09,2.09,0,0,0,.56.47.68.68,0,0,0,1-.79,2.25,2.25,0,0,0-.42-.83l-1.94-2.78a1.9,1.9,0,0,0-.68-.7c-1-.51-2.31.54-1.53,1.5S222.05,63.75,223,64.78Z" transform="translate(-9.35 -6.17)"/><path fill="#007bff" d="M199.49,51.62a2.26,2.26,0,0,0,.42.59.76.76,0,0,0,.68.21.79.79,0,0,0,.51-.72,2.24,2.24,0,0,0-.21-.91l-1.18-3.17a2.07,2.07,0,0,0-.49-.85c-.83-.74-2.37,0-1.85,1.07C198,49.14,198.79,50.37,199.49,51.62Z" transform="translate(-9.35 -6.17)"/><path fill="#007bff" d="M229.74,55.62a2.17,2.17,0,0,0,.71-.17.68.68,0,0,0,0-1.29,2.18,2.18,0,0,0-.92-.16l-3.38-.1a2.1,2.1,0,0,0-1,.13c-1,.5-.94,2.19.29,2.13C226.87,56.09,228.32,55.8,229.74,55.62Z" transform="translate(-9.35 -6.17)"/><path fill="#007bff" d="M223.76,70.54q2.76-.62,5.57-1a.86.86,0,0,1-.19,1.14,2.55,2.55,0,0,1-1.17.46l-5.42,1.1c-.52.11-2.22.06-1.43-.79C221.64,70.86,223.05,70.7,223.76,70.54Z" transform="translate(-9.35 -6.17)"/><path fill="#007bff" d="M206.16,65.14q2.72.83,5.35,1.85a.85.85,0,0,1-.72.89,2.47,2.47,0,0,1-1.25-.18L204.29,66c-.51-.16-2-1-.86-1.4C204.16,64.37,205.46,64.93,206.16,65.14Z" transform="translate(-9.35 -6.17)"/><path fill="#007bff" d="M238.32,64.18a2.32,2.32,0,0,0,.62-.39.68.68,0,0,0-.44-1.22,2.44,2.44,0,0,0-.92.15l-3.24,1a2.09,2.09,0,0,0-.87.43c-.79.79-.19,2.37.95,1.92C235.75,65.54,237,64.8,238.32,64.18Z" transform="translate(-9.35 -6.17)"/><path fill="#007bff" d="M244,65.25q.25-2.82.72-5.61a.85.85,0,0,1,1,.53,2.4,2.4,0,0,1,.08,1.25l-.6,5.49c-.06.53-.63,2.14-1.2,1.12C243.68,67.37,244,66,244,65.25Z" transform="translate(-9.35 -6.17)"/><path fill="url(#linear-gradient-17)" d="M187.89,54.25a2.51,2.51,0,0,0,.57.6.77.77,0,0,0,1.25-.76,2.59,2.59,0,0,0-.37-1l-1.83-3.39a2.42,2.42,0,0,0-.68-.87c-1.05-.7-2.68.32-1.92,1.5C185.79,51.7,186.91,53,187.89,54.25Z" transform="translate(-9.35 -6.17)"/><path fill="url(#linear-gradient-18)" d="M171.87,59q4.41-2.22,9-4.09a.44.44,0,0,1,.4,0,.43.43,0,0,1,.17.29L182,56.9a50.73,50.73,0,0,1-5.45,3.47,1.85,1.85,0,0,1-1.65.29c-.64-.33-.67-1.2-1-1.84" transform="translate(-9.35 -6.17)"/><path fill="url(#linear-gradient-19)" d="M188,60.85q3.19-.36,6.41-.46a1,1,0,0,1-.35,1.25,2.85,2.85,0,0,1-1.38.37l-6.25.57c-.6.05-2.52-.23-1.52-1.08C185.54,60.93,187.15,60.94,188,60.85Z" transform="translate(-9.35 -6.17)"/><path fill="url(#linear-gradient-20)" d="M205.21,55.5a2.54,2.54,0,0,0,.74-.36.84.84,0,0,0,.36-.72.87.87,0,0,0-.7-.71,2.72,2.72,0,0,0-1.06,0l-3.78.71a2.38,2.38,0,0,0-1,.38c-1,.79-.51,2.65.84,2.29C202.14,56.71,203.68,56,205.21,55.5Z" transform="translate(-9.35 -6.17)"/><path fill="url(#linear-gradient-21)" d="M211.36,58.08A50.76,50.76,0,0,1,212.45,53a1.34,1.34,0,0,1,1.25.7,1.81,1.81,0,0,1,.06,1.19l-.93,5c-.09.48-.86,1.85-1.53.79C210.86,60,211.26,58.74,211.36,58.08Z" transform="translate(-9.35 -6.17)"/><path fill="url(#linear-gradient-22)" d="M223,64.78a2.09,2.09,0,0,0,.56.47.68.68,0,0,0,1-.79,2.25,2.25,0,0,0-.42-.83l-1.94-2.78a1.9,1.9,0,0,0-.68-.7c-1-.51-2.31.54-1.53,1.5S222.05,63.75,223,64.78Z" transform="translate(-9.35 -6.17)"/><path fill="url(#linear-gradient-23)" d="M199.49,51.62a2.26,2.26,0,0,0,.42.59.76.76,0,0,0,.68.21.79.79,0,0,0,.51-.72,2.24,2.24,0,0,0-.21-.91l-1.18-3.17a2.07,2.07,0,0,0-.49-.85c-.83-.74-2.37,0-1.85,1.07C198,49.14,198.79,50.37,199.49,51.62Z" transform="translate(-9.35 -6.17)"/><path fill="url(#linear-gradient-24)" d="M229.74,55.62a2.17,2.17,0,0,0,.71-.17.68.68,0,0,0,0-1.29,2.18,2.18,0,0,0-.92-.16l-3.38-.1a2.1,2.1,0,0,0-1,.13c-1,.5-.94,2.19.29,2.13C226.87,56.09,228.32,55.8,229.74,55.62Z" transform="translate(-9.35 -6.17)"/><path fill="url(#linear-gradient-25)" d="M223.76,70.54q2.76-.62,5.57-1a.86.86,0,0,1-.19,1.14,2.55,2.55,0,0,1-1.17.46l-5.42,1.1c-.52.11-2.22.06-1.43-.79C221.64,70.86,223.05,70.7,223.76,70.54Z" transform="translate(-9.35 -6.17)"/><path fill="url(#linear-gradient-26)" d="M206.16,65.14q2.72.83,5.35,1.85a.85.85,0,0,1-.72.89,2.47,2.47,0,0,1-1.25-.18L204.29,66c-.51-.16-2-1-.86-1.4C204.16,64.37,205.46,64.93,206.16,65.14Z" transform="translate(-9.35 -6.17)"/><path fill="url(#linear-gradient-27)" d="M238.32,64.18a2.32,2.32,0,0,0,.62-.39.68.68,0,0,0-.44-1.22,2.44,2.44,0,0,0-.92.15l-3.24,1a2.09,2.09,0,0,0-.87.43c-.79.79-.19,2.37.95,1.92C235.75,65.54,237,64.8,238.32,64.18Z" transform="translate(-9.35 -6.17)"/><path fill="url(#linear-gradient-28)" d="M244,65.25q.25-2.82.72-5.61a.85.85,0,0,1,1,.53,2.4,2.4,0,0,1,.08,1.25l-.6,5.49c-.06.53-.63,2.14-1.2,1.12C243.68,67.37,244,66,244,65.25Z" transform="translate(-9.35 -6.17)"/><path fill="url(#linear-gradient-29)" d="M148.93,120a6.74,6.74,0,0,0,7,3.94,1.7,1.7,0,0,1,.71,0c.64.2.77,1.2,1.43,1.37a3.13,3.13,0,0,0,.91,0c1.12,0,1.71,1.26,2.49,2.06,1.19,1.21,3.07,1.34,4.76,1.33s3.53,0,4.88,1a7.3,7.3,0,0,0,1.69,1.26,3.43,3.43,0,0,0,1.15.14c1.64,0,3.44-.08,4.73.93.65.5,1.1,1.24,1.78,1.71s1.79.53,2.2-.18c-3.1-.88-5.19-3.93-8.26-4.92a18.88,18.88,0,0,0-3.52-.58,47.84,47.84,0,0,1-4.71-.94,12.63,12.63,0,0,1-4.07-1.46c-.87-.56-1.59-1.32-2.41-2a13.31,13.31,0,0,0-6.47-2.48,9.42,9.42,0,0,1-2.75-.57c-1.46-.68-2.56-2.3-4.16-2.26a2.23,2.23,0,0,0,1,1.78,6.63,6.63,0,0,0,2,.82" transform="translate(-9.35 -6.17)"/><path fill="#007bff" d="M269.91,148.28a101,101,0,0,1,24.32,7.41c-5.93,7.44-3.49,20,4.8,24.63s20.26.26,23.54-8.66L345,181.73c-1.19,6-5.12,11-8.93,15.81l-23.25,29.2a6.34,6.34,0,0,1-3,2.45,6.25,6.25,0,0,1-3.88-.69A423,423,0,0,1,267.19,210c-4.67-2.53-9.43-5.27-12.63-9.51C244.51,187.14,262.87,160,269.91,148.28Z" transform="translate(-9.35 -6.17)"/><path fill="#007bff" d="M309.81,229.19c7.74-8.67,18.39-24.62,23.56-35.73a129.07,129.07,0,0,1,7.53-13.57,102.35,102.35,0,0,1,18.61-1.79q-9.87,17.31-20.29,34.32c-2.93,4.77-5,10.48-10.35,12.57a53.84,53.84,0,0,1-8.79,2.54C318.34,227.89,311,228.17,309.81,229.19Z" transform="translate(-9.35 -6.17)"/><path fill="url(#linear-gradient-30)" d="M309.81,229.19c7.74-8.67,18.39-24.62,23.56-35.73a129.07,129.07,0,0,1,7.53-13.57,102.35,102.35,0,0,1,18.61-1.79q-9.87,17.31-20.29,34.32c-2.93,4.77-5,10.48-10.35,12.57a53.84,53.84,0,0,1-8.79,2.54C318.34,227.89,311,228.17,309.81,229.19Z" transform="translate(-9.35 -6.17)"/><path fill="#007bff" d="M336.93,140.06a6.78,6.78,0,0,0,.75-2.69c0-2.12-2-3.65-3.73-4.84a2.47,2.47,0,0,0-1.39-.57c-.75,0-1.29.72-1.7,1.35a67.92,67.92,0,0,0-4.78,9.39c-3.89,8.84-7.5,17.81-11.1,26.77a24.05,24.05,0,0,0-2.07,7.27,41.87,41.87,0,0,0,8.28-4.72,15.1,15.1,0,0,0,3.25-3c2.62-3.56,3.11-8.57,5.2-12.5C332.44,151.25,334.53,145.5,336.93,140.06Z" transform="translate(-9.35 -6.17)"/><path fill="#007bff" d="M349.92,145.08a2.22,2.22,0,0,0,.77-1.39,2.19,2.19,0,0,0-.63-1.3l-4.48-5.6c-10.64,12.23-22.44,25.55-30.18,39.84,2.35.81,7.27-3.26,9.84-4.1a11.73,11.73,0,0,0,6.95-5.05A226.45,226.45,0,0,1,349.92,145.08Z" transform="translate(-9.35 -6.17)"/><path fill="#007bff" d="M350.14,147.4a7.46,7.46,0,0,1-1,2.78c-4.82,9.24-9.9,18.61-17.53,25.71a2,2,0,0,1-.85.55,1.9,1.9,0,0,1-1.1-.13,19.81,19.81,0,0,1-4.47-2.09c2.65-4,6.95-6.66,9.87-10.49,1.08-1.42,2-3,2.9-4.49a75.83,75.83,0,0,1,5.76-7.92c1.38-1.69,4.06-6.15,6.15-6.68A6.47,6.47,0,0,1,350.14,147.4Z" transform="translate(-9.35 -6.17)"/><path fill="url(#linear-gradient-31)" d="M350.14,147.4a7.46,7.46,0,0,1-1,2.78c-4.82,9.24-9.9,18.61-17.53,25.71a2,2,0,0,1-.85.55,1.9,1.9,0,0,1-1.1-.13,19.81,19.81,0,0,1-4.47-2.09c2.65-4,6.95-6.66,9.87-10.49,1.08-1.42,2-3,2.9-4.49a75.83,75.83,0,0,1,5.76-7.92c1.38-1.69,4.06-6.15,6.15-6.68A6.47,6.47,0,0,1,350.14,147.4Z" transform="translate(-9.35 -6.17)"/><path fill="#007bff" d="M331.8,149l-2.64-3c-6.87,6.89-13.74,13.78-20.29,21-3.18,3.49-6.32,7.1-8.36,11.36a1.89,1.89,0,0,0-.26,1.05,1.7,1.7,0,0,0,.56.93c6.72,6.66,13-5.14,16.43-9.64A208,208,0,0,0,331.8,149Z" transform="translate(-9.35 -6.17)"/><path fill="url(#linear-gradient-32)" d="M331.8,149l-2.64-3c-6.87,6.89-13.74,13.78-20.29,21-3.18,3.49-6.32,7.1-8.36,11.36a1.89,1.89,0,0,0-.26,1.05,1.7,1.7,0,0,0,.56.93c6.72,6.66,13-5.14,16.43-9.64A208,208,0,0,0,331.8,149Z" transform="translate(-9.35 -6.17)"/><path fill="#007bff" d="M330.49,146l-6.11-5c-7,13.3-20.2,22.62-26.76,36.15a1.58,1.58,0,0,0-.23,1,1.51,1.51,0,0,0,.66.8c5.91,4.27,8.85-.25,12.17-4.74q6.6-8.91,13-17.94Q326.89,151.15,330.49,146Z" transform="translate(-9.35 -6.17)"/><path fill="#007bff" d="M277.92,141.34c.1-8.06,1.05-16.43,5.32-23.26a1.86,1.86,0,0,1,.64-.72,2.06,2.06,0,0,1,1-.18l6.29-.16c-3.52,4.62-5.41,10.33-6.29,16.08a113.77,113.77,0,0,0-.8,17.42c0,.32,0,.71-.32.85a.88.88,0,0,1-.72-.08c-1.57-.66-4.79-1.32-5.51-3.1S277.89,143.21,277.92,141.34Z" transform="translate(-9.35 -6.17)"/><path fill="#007bff" d="M290.11,116.64a44.15,44.15,0,0,0-5,9.62,37.58,37.58,0,0,0-1.51,10.52c-.15,4.69,0,9.39.07,14.09a1.09,1.09,0,0,0,.17.67,1.07,1.07,0,0,0,.51.28L288.1,153l0-5.74a110,110,0,0,1,1-16.12,42.91,42.91,0,0,1,1.95-7.81c.36-1,1.14-2.17.93-3.27S290.64,117.63,290.11,116.64Z" transform="translate(-9.35 -6.17)"/><path fill="url(#linear-gradient-33)" d="M290.11,116.64a44.15,44.15,0,0,0-5,9.62,37.58,37.58,0,0,0-1.51,10.52c-.15,4.69,0,9.39.07,14.09a1.09,1.09,0,0,0,.17.67,1.07,1.07,0,0,0,.51.28L288.1,153l0-5.74a110,110,0,0,1,1-16.12,42.91,42.91,0,0,1,1.95-7.81c.36-1,1.14-2.17.93-3.27S290.64,117.63,290.11,116.64Z" transform="translate(-9.35 -6.17)"/><path fill="#007bff" d="M297,154.73q8.2-14.89,16.5-29.75,4,1.17,8.1,2a24.9,24.9,0,0,1-3.45,6.87,373,373,0,0,0-22.85,41.64c.16-.34-2.08-4.57-2.27-5.32a16.09,16.09,0,0,1-.59-5.93C292.86,161,295.43,157.54,297,154.73Z" transform="translate(-9.35 -6.17)"/><path fill="#007bff" d="M322.44,131.76a9,9,0,0,1-.95,2.54A246.61,246.61,0,0,1,295.7,176c1.9-2.44,2.86-6.72,4.17-9.56q2.28-4.92,4.77-9.73,5-9.62,10.81-18.78c1.24-2,4.33-8.72,6.66-9.09A5.24,5.24,0,0,1,322.44,131.76Z" transform="translate(-9.35 -6.17)"/><path fill="url(#linear-gradient-34)" d="M322.44,131.76a9,9,0,0,1-.95,2.54A246.61,246.61,0,0,1,295.7,176c1.9-2.44,2.86-6.72,4.17-9.56q2.28-4.92,4.77-9.73,5-9.62,10.81-18.78c1.24-2,4.33-8.72,6.66-9.09A5.24,5.24,0,0,1,322.44,131.76Z" transform="translate(-9.35 -6.17)"/><path fill="#007bff" d="M317.4,138a3.49,3.49,0,0,1,.75-1.13,3.33,3.33,0,0,1,1.24-.6l4.33-1.44a57.18,57.18,0,0,1-1.38,8,12.06,12.06,0,0,1-.93,2.73,13.81,13.81,0,0,1-2.11,2.77A118.64,118.64,0,0,1,308.65,159c2.24-1.92,3-7.38,4-10Q314.77,143.38,317.4,138Z" transform="translate(-9.35 -6.17)"/><circle cx="274.85" cy="189.14" r="13.83" fill="#fff"/><circle cx="269.47" cy="183.68" r="1.42" fill="#007bff"/><circle cx="279.57" cy="187.72" r="1.42" fill="#007bff"/><path fill="#007bff" d="M278.54,195.77c2.89,1.35,5.79,2.71,8.79,3.81a7.43,7.43,0,0,1-3.93,3.3,9.7,9.7,0,0,1-4.18.17,6.11,6.11,0,0,1-4.25-3.58,6.79,6.79,0,0,1-.17-4.68c.34-1,.79-.58,1.53-.14S277.79,195.42,278.54,195.77Z" transform="translate(-9.35 -6.17)"/><path fill="#fff" d="M52.39,191.34a4.93,4.93,0,0,0-1.53,2.87c-.07,1.88,1.86,3.15,3.61,3.82,10.45,4,22.18.54,32.55-3.66,7.09-2.87,48.2-17.6,36.25-29.86-10.06-10.32-36.43,1.89-46,7.08A90.66,90.66,0,0,0,52.39,191.34Z" transform="translate(-9.35 -6.17)"/><path fill="#007bff" d="M61.32,188.55a3.64,3.64,0,0,0-1.14,2.15c-.06,1.41,1.39,2.36,2.7,2.87,7.84,3,16.64.4,24.43-2.75,5.31-2.16,36.15-13.21,27.19-22.4-7.55-7.74-27.33,1.42-34.52,5.31A68,68,0,0,0,61.32,188.55Z" transform="translate(-9.35 -6.17)"/><path fill="url(#linear-gradient-35)" d="M61.32,188.55a3.64,3.64,0,0,0-1.14,2.15c-.06,1.41,1.39,2.36,2.7,2.87,7.84,3,16.64.4,24.43-2.75,5.31-2.16,36.15-13.21,27.19-22.4-7.55-7.74-27.33,1.42-34.52,5.31A68,68,0,0,0,61.32,188.55Z" transform="translate(-9.35 -6.17)"/><path fill="#fff" d="M89.85,170.42c1.4,2.86,5.44,12.78-2.51,10.7a3.6,3.6,0,0,1-1.63-1A10.19,10.19,0,0,1,84,177.45q-4.35-8.79-8.72-17.58c-3-6.17-6.22-12.49-11.25-17.2,1.09.36,2-1,2-2.15s-.54-2.28-.32-3.4a5.48,5.48,0,0,1,1.47-2.43,398.71,398.71,0,0,1,29.68-30.18c.3-.28.59-.56.9-.83l4.78,4.33q-9.93,11-19.88,21.91c-2.82,3.11-5.78,6.48-6.44,10.64-.9,5.68,2.68,11,5.79,15.8A135.32,135.32,0,0,1,89.85,170.42Z" transform="translate(-9.35 -6.17)"/><path fill="url(#linear-gradient-36)" d="M89.85,170.42c1.4,2.86,5.44,12.78-2.51,10.7a3.6,3.6,0,0,1-1.63-1A10.19,10.19,0,0,1,84,177.45q-4.35-8.79-8.72-17.58c-3-6.17-6.22-12.49-11.25-17.2,1.09.36,2-1,2-2.15s-.54-2.28-.32-3.4a5.48,5.48,0,0,1,1.47-2.43,398.71,398.71,0,0,1,29.68-30.18c.3-.28.59-.56.9-.83l4.78,4.33q-9.93,11-19.88,21.91c-2.82,3.11-5.78,6.48-6.44,10.64-.9,5.68,2.68,11,5.79,15.8A135.32,135.32,0,0,1,89.85,170.42Z" transform="translate(-9.35 -6.17)"/><path fill="#fff" d="M86.65,169.16c1.29,2.66,4.85,11.36-.94,11A10.19,10.19,0,0,1,84,177.45q-4.35-8.79-8.72-17.58c-3-6.17-6.22-12.49-11.25-17.2,1.09.36,2-1,2-2.15s-.54-2.28-.32-3.4a5.48,5.48,0,0,1,1.47-2.43,398.71,398.71,0,0,1,29.68-30.18l2.47,2.25q-9.93,10.93-19.87,21.89c-2.83,3.12-5.79,6.5-6.44,10.66-.9,5.67,2.67,11,5.78,15.8A136.3,136.3,0,0,1,86.65,169.16Z" transform="translate(-9.35 -6.17)"/></svg>